<?xml version="1.0" encoding="utf-8"?>
<!-- Generator: Adobe Illustrator 24.3.0, SVG Export Plug-In . SVG Version: 6.00 Build 0)  -->
<svg version="1.1" id="Layer_1" xmlns="http://www.w3.org/2000/svg" xmlns:xlink="http://www.w3.org/1999/xlink" x="0px" y="0px"
	 viewBox="0 0 542.7 105.5" style="enable-background:new 0 0 542.7 105.5;" xml:space="preserve">
<style type="text/css">
	.st0{fill:#231F20;}
	.st1{fill:#E08F5F;}
	.st2{fill:#57799E;}
	.st3{fill:#7B9795;}
	.st4{fill:#5C4230;}
	.st5{fill:#D4BF4C;}
	.st6{fill:#5E3638;}
	.st7{fill:#9A8479;}
	.st8{fill:#D0C6B4;}
	.st9{fill:#375784;}
	.st10{fill:#4E7C71;}
	.st11{fill:#BFB5CA;}
	.st12{fill:#C4B16D;}
	.st13{fill:#A5C2E5;}
	.st14{fill:#55665A;}
	.st15{fill:#555458;}
	.st16{fill:#4E938A;}
	.st17{fill:#70919E;}
	.st18{fill:#394E4A;}
	.st19{fill:#B36F3E;}
	.st20{fill:#817593;}
	.st21{fill:#957D98;}
	.st22{fill:#E36C33;}
	.st23{fill:#CF4D32;}
	.st24{fill:#2B388F;}
	.st25{fill:#347170;}
</style>
<g>
	<g>
		<path class="st0" d="M396,44.5h-6.9v11.1h6.8v2.5h-6.8v12h7.1v2.6h-9.9V41.9h9.7V44.5z"/>
		<path class="st0" d="M411.5,63c0.2,0.5,0.7,2.6,1.7,6.5c-0.4-3.7-0.6-7.5-0.6-11.6v-16h2.4v30.9h-2.4L405.7,52
			c-0.7-2.3-1.3-4.5-1.9-6.9c0.5,4.5,0.7,8.4,0.7,11.6v16.1h-2.4V41.9h2.4L411.5,63z"/>
		<path class="st0" d="M437.1,44.5h-6.9v11.1h6.8v2.5h-6.8v12h7.1v2.6h-9.9V41.9h9.7V44.5z"/>
		<path class="st0" d="M446.9,70.5c2.9,0,4.9-2.3,4.9-5.6c0-1.4-0.4-2.6-1.2-3.6c-1.3-1.6-3-2.6-4.6-3.9c-2.9-2.4-4.4-4.7-4.4-7.9
			c0-4.7,3.1-8.1,7.2-8.1c1.6,0,3.2,0.6,4.8,1.7v3.6c-1.3-1.8-2.9-2.7-4.6-2.7c-2.6,0-4.5,2-4.5,5.2c0,3.5,1.9,4.9,4.8,7.1
			c3.3,2.4,5.3,4.3,5.3,8.4c0,5-3.2,8.4-7.5,8.4c-1.9,0-3.6-0.5-5.2-1.5V68C443.5,69.7,445.1,70.5,446.9,70.5z"/>
		<path class="st0" d="M471.5,50.2c0,5.3-2.3,7.8-7.3,7.8h-1.5v14.8h-2.8V41.9h3.9C469.2,41.9,471.5,44.4,471.5,50.2z M464.3,55.4
			c3.2,0,4.4-1.7,4.4-5.6c0-3.7-1.4-5.4-4.6-5.4h-1.3v11H464.3z"/>
		<path class="st0" d="M488.3,72.7h-2.9l-1.2-6.2h-7.1l-1.1,6.2h-2.9l6.1-30.9h2.7L488.3,72.7z M483.7,64l-2.5-14.4
			c-0.2-1-0.3-2.5-0.5-4.6c-0.1,1.6-0.3,3.2-0.6,4.6L477.6,64H483.7z"/>
		<path class="st0" d="M502.3,63c0.2,0.5,0.7,2.6,1.7,6.5c-0.4-3.7-0.6-7.5-0.6-11.6v-16h2.4v30.9h-2.4L496.5,52
			c-0.7-2.3-1.3-4.5-1.9-6.9c0.5,4.5,0.7,8.4,0.7,11.6v16.1h-2.4V41.9h2.4L502.3,63z M501.6,37.5c-0.5,0-0.9-0.1-1.3-0.3l-1.5-0.5
			c-0.3-0.1-0.6-0.1-0.9-0.1c-0.7,0-1.2,0.5-1.5,1.4h-1.4c0.5-2.4,1.7-3.6,3.2-3.6c0.5,0,0.9,0,1.2,0.2l1.5,0.6
			c0.3,0.1,0.6,0.2,0.9,0.2c0.7,0,1.3-0.5,1.6-1.5h1.3C504.1,36.3,503.1,37.5,501.6,37.5z"/>
		<path class="st0" d="M518.9,41.5c5.3,0,7.7,5.2,7.7,15.8c0,10.7-2.3,15.8-7.7,15.8c-5.3,0-7.7-5.2-7.7-15.8
			C511.3,46.7,513.6,41.5,518.9,41.5z M514.2,57.3c0,8.9,1.4,13.3,4.8,13.3c3.4,0,4.8-4.3,4.8-13.3c0-8.9-1.3-13.2-4.8-13.2
			C515.5,44.1,514.2,48.4,514.2,57.3z"/>
		<path class="st0" d="M535,70.2h6.6v2.6h-9.4V41.9h2.8V70.2z"/>
	</g>
	<g>
		<path class="st0" d="M23.6,90h1.8l3.4,14.6h-2l-0.7-2.9h-3.3l-0.7,2.9h-2L23.6,90z M23.2,100h2.6l-1.3-6.3L23.2,100z"/>
		<path class="st0" d="M31.5,90h1.8l3.9,10.1V90h1.9v14.6h-1.8l-3.8-10.2v10.2h-1.9V90z"/>
		<path class="st0" d="M42.9,90h1.8l3.9,10.1V90h1.9v14.6h-1.8l-3.8-10.2v10.2h-1.9V90z"/>
		<path class="st0" d="M54.1,90H56v10.8c0,1.4,0.6,2,1.9,2s1.9-0.7,1.9-2V90h1.9v10.7c0,2.8-1.2,4.1-3.8,4.1c-2.7,0-3.8-1.3-3.8-4.1
			V90z"/>
		<path class="st0" d="M67.7,90h1.8l3.4,14.6h-2l-0.7-2.9H67l-0.7,2.9h-2L67.7,90z M67.4,100H70l-1.3-6.3L67.4,100z"/>
		<path class="st0" d="M75.7,90h2v12.7h4.2v1.8h-6.2V90z"/>
		<path class="st0" d="M91.7,104.5h-2V90h2.4c3,0,4.4,1,4.4,3.8c0,2.2-0.9,3.4-2.7,3.6l3.4,7.2h-2.1l-3.3-7.1h-0.1V104.5z
			 M92.3,96.3c1.7,0,2.2-0.8,2.2-2.5c0-1.7-0.6-2.1-2.2-2.1h-0.6v4.6H92.3z"/>
		<path class="st0" d="M99.8,90h5.8v1.8h-3.9v4.3h3.5v1.7h-3.5v4.9h3.9v1.8h-5.8V90z"/>
		<path class="st0" d="M111,104.5L107.8,90h2l2,9.9l2-9.9h2l-3.2,14.6H111z"/>
		<path class="st0" d="M118.6,90h2v14.6h-2V90z"/>
		<path class="st0" d="M124.4,90h5.8v1.8h-3.9v4.3h3.5v1.7h-3.5v4.9h3.9v1.8h-5.8V90z"/>
		<path class="st0" d="M132.5,90h1.9l1.4,10l1.7-10h1.6l1.7,10l1.4-10h1.9l-2.4,14.6h-1.6l-1.8-10.3l-1.8,10.3h-1.6L132.5,90z"/>
		<path class="st0" d="M149,102.8c1.2,0,2-0.8,2-1.9c0-1.4-1-2.1-2.4-3.2c-1.5-1.2-2.3-2.3-2.3-4c0-2.2,1.6-3.8,3.6-3.8
			c0.9,0,1.7,0.2,2.6,0.7v2c-0.8-0.5-1.5-0.8-2.2-0.8c-1.2,0-2,0.8-2,2c0,1.3,1,2,2.4,3.2c1.6,1.3,2.3,2.4,2.3,4.1
			c0,2.2-1.5,3.8-3.8,3.8c-0.8,0-1.7-0.2-2.5-0.7v-2C147.5,102.5,148.3,102.8,149,102.8z"/>
	</g>
	<g>
		<rect x="211.7" y="88.8" class="st1" width="14.3" height="16"/>
		<rect x="197.3" y="88.8" class="st2" width="14.3" height="16"/>
		<rect x="183" y="88.8" class="st3" width="14.3" height="16"/>
		<rect x="168.7" y="88.8" class="st4" width="14.3" height="16"/>
		<rect x="312.1" y="88.8" class="st5" width="14.3" height="16"/>
		<rect x="297.8" y="88.8" class="st6" width="14.3" height="16"/>
		<rect x="269.1" y="88.8" class="st7" width="14.3" height="16"/>
		<rect x="283.4" y="88.8" class="st8" width="14.3" height="16"/>
		<rect x="254.7" y="88.8" class="st9" width="14.3" height="16"/>
		<rect x="240.4" y="88.8" class="st10" width="14.3" height="16"/>
		<rect x="226" y="88.8" class="st11" width="14.3" height="16"/>
		<rect x="383.8" y="88.8" class="st12" width="14.3" height="16"/>
		<rect x="369.5" y="88.8" class="st13" width="14.3" height="16"/>
		<rect x="355.2" y="88.8" class="st14" width="14.3" height="16"/>
		<rect x="340.8" y="88.8" class="st15" width="14.3" height="16"/>
		<rect x="326.5" y="88.8" class="st16" width="14.3" height="16"/>
		<rect x="455.6" y="88.8" class="st17" width="14.3" height="16"/>
		<rect x="441.2" y="88.8" class="st18" width="14.3" height="16"/>
		<rect x="426.9" y="88.8" class="st19" width="14.3" height="16"/>
		<rect x="412.5" y="88.8" class="st20" width="14.3" height="16"/>
		<rect x="398.2" y="88.8" class="st21" width="14.3" height="16"/>
		<rect x="527.3" y="88.8" class="st22" width="14.3" height="16"/>
		<rect x="513" y="88.8" class="st23" width="14.3" height="16"/>
		<rect x="498.6" y="88.8" class="st1" width="14.3" height="16"/>
		<rect x="484.3" y="88.8" class="st24" width="14.3" height="16"/>
		<rect x="469.9" y="88.8" class="st25" width="14.3" height="16"/>
	</g>
	<g>
		<g>
			<g>
				<g>
					<path class="st0" d="M173.1,74.6l-18.5-44.9l14.5-0.1l10.3,28.2L173.1,74.6z"/>
					<path class="st0" d="M195.4,74.9l-18.5-44.9l14.5-0.1l10.3,28.2L195.4,74.9z"/>
				</g>
				<g>
					<path class="st0" d="M244.4,73.2L232,73.1c0,0,0.1-36-0.4-37.5l-0.1-0.5c-0.9-3.3-3.7-5-7.4-5c0,0,2.5-1,5.3-1.1
						c7.1-0.3,9,1.5,11.7,3.9c2.2,2.1,3.3,5.6,3.3,10.8L244.4,73.2z"/>
					<path d="M221.5,31.6c-1.2,2.3-0.9,3.9,0.9,5.2c1.4,1,1.9,2.6,0.9,3.9c-0.7,0.9-2.2,1.7-3.3,1.7c-1.8,0-2.6-1.5-2.9-3.2
						C216.5,36.5,218.2,33.5,221.5,31.6z"/>
					<path d="M227.5,73c-10.2,0.6-16.7-4.7-16.7-13.8c0-9.5,7.5-14.4,17.1-14c-6.3,4.4-9,6.2-9,14C219,67.1,221.3,69.2,227.5,73z"/>
				</g>
				<g>
					<path class="st0" d="M94.7,73L81.3,73l0-25.8c0-7.1-0.5-11.4-1.4-12.8c-0.8-1.2-1.8-2.5-4.2-2.5c-1.4,0-3.3,0.6-3.8,1
						c2.3-2.8,6.4-4.4,10-4.4c5.7,0,9.4,2,11.2,6c0.7,1.7,1.2,3.5,1.3,5.6c0.2,2.1,0.2,6.3,0.2,12.7L94.7,73z"/>
					<path class="st0" d="M68.8,72.9l-13.3,0l-0.1-39.7l13.4-3.4L68.8,72.9z"/>
				</g>
				<g>
					<path class="st0" d="M130.4,28.8c-0.6,0,1.7,0.1,3.5,1.9c2,2,4.6,7.5,4.6,21s-2.9,18.9-4.3,20.3c-1.6,1.6-3.2,2.1-3.2,2.1
						s9.4,0.8,16.4-7.2c6.8-7.8,6-15.2,6-15.2S153.3,41,146.1,35C138.4,28.6,130.4,28.8,130.4,28.8z"/>
					<path class="st0" d="M125.2,28.8c0.6,0-1.7,0.2-3.5,1.9c-2,2-4.6,7.5-4.6,21s2.9,18.9,4.3,20.3c1.7,1.7,3.2,2.1,3.2,2.1
						s-9.4,0.8-16.4-7.2c-6.8-7.8-6-15.2-6-15.2s0.1-10.6,7.3-16.6C117.3,28.6,125.2,28.8,125.2,28.8z"/>
				</g>
				<g>
					<path class="st0" d="M275.7,28.8c0,0,1.5-0.2,3.5,1.9s5.4,7.5,5.4,21s-2.7,17.7-4.1,19.1c-1.4,1.4-4.9,2.4-4.9,2.4
						s10.8,1.3,17.2-6.3c6.6-7.9,6-15.2,6-15.2S298.6,41,291.3,35C283.6,28.6,275.7,28.8,275.7,28.8z"/>
					<path class="st0" d="M270,72.7l-13.3,0l-0.1-67L270,2.3L270,72.7z"/>
				</g>
				<path class="st0" d="M322.4,72.7l-13.3,0l-0.1-67l13.4-3.4L322.4,72.7z"/>
				<g>
					<path class="st0" d="M368.8,67.2c0,0-3.9,6.8-14.3,6.8c-6.7,0-13.2-2.1-17.5-6.4c-4.3-4.2-6.5-9.7-6.5-16.3
						c0-6.5,2.1-11.9,6.3-16.3c4.2-4.3,9.1-5.9,12.8-6.4c2.1-0.3,3.2-0.1,3.2-0.1c-1.9,0.3-7.8,8.8-8.1,20.1
						c-0.2,10.7,2.2,15.7,5.5,19c2.5,2.4,5.4,3.3,8.2,3.3C364.7,70.7,368.8,67.2,368.8,67.2z"/>
					<path class="st0" d="M356.1,28.5c0,0,10,0,14,5.9c3.1,4.6,3,10.4,3,10.4l-15.5,0c0,0,3.5-1.7,3.9-4.9c0.4-2.6-0.5-6-1.8-8.6
						C358.8,29.4,356.1,28.5,356.1,28.5z"/>
				</g>
				<g>
					<path class="st0" d="M14,72.7l-13.3,0l-0.1-67L14,2.3L14,72.7z"/>
					<path class="st0" d="M31.7,72.6L16.9,48.4l8.2-8.8l22.4,33L31.7,72.6z"/>
					<path d="M37,26.7c-3.3,3.6-6.3,6.9-9.3,10.2c0.6-5-0.5-8.8-6-10.2C26.7,26.7,31.7,26.7,37,26.7z"/>
				</g>
			</g>
		</g>
	</g>
	<g>
		<path class="st0" d="M2.2,93.9c3,0,4.1,1.4,4.1,5.4c0,3.9-1.1,5.4-4.1,5.4h-2V93.9H2.2z M4.8,99.3c0-2.9-0.5-4-2.3-4H1.7v8h0.8
			C4.3,103.3,4.8,102.2,4.8,99.3z"/>
		<path class="st0" d="M13.2,93.9v1.3h-2.9v3.2h2.7v1.3h-2.7v3.6h2.9v1.3H8.8V93.9H13.2z"/>
	</g>
</g>
</svg>
